# xmcd CD database file
#
# Track frame offsets:
#	151
#	19268
#	37539
#	51994
#	59163
#	75519
#	102880
#	137594
#	166435
#	209899
#	226194
#	254753
#	276860
#
# Disc length: 3977 seconds
#
# Revision: 5
# Processed by: cddbd v1.5.2PL0 Copyright (c) Steve Scherf et al.
# Submitted via: CDex 1.51
#
DISCID=b90f870d
DTITLE=Anton Bruckner - Mass in E minor - Motets  (Marcud Creed, SWR Vokalensemble Stuttgart)
DYEAR=2007
DGENRE=Classique
TTITLE0=Os justi  (1879)
TTITLE1=Virga jesse  (1885)
TTITLE2=Locus iste  (1869)
TTITLE3=Afferentur regi  (1861)
TTITLE4=Ave Maria  (1861)
TTITLE5=Christus factus est  (1884)
TTITLE6=Mass in E minor N°2 (version 1882) - I. Kyrie
TTITLE7=Mass in E minor N°2 (version 1882) - II. Gloria
TTITLE8=Mass in E minor N°2 (version 1882) - III. Credo
TTITLE9=Mass in E minor N°2 (version 1882) - IV. Sanctus
TTITLE10=Mass in E minor N°2 (version 1882) - V. Benedictus
TTITLE11=Mass in E minor N°2 (version 1882) - VI. Agnus Dei
TTITLE12=Pange lingua  (1868)
EXTD=YEAR: 2007
EXTT0=
EXTT1=
EXTT2=
EXTT3=
EXTT4=
EXTT5=
EXTT6=
EXTT7=
EXTT8=
EXTT9=
EXTT10=
EXTT11=
EXTT12=
PLAYORDER=
